# xmcd CD database file
#
# Track frame offsets:
#	150
#	24242
#	42694
#	66996
#	97703
#	125830
#	158607
#	181657
#	209447
#	227689
#	255276
#	281693
#
# Disc length: 4188 seconds
#
# Revision: 0
# Processed by: cddbd v1.5.2PL0 Copyright (c) Steve Scherf et al.
# Submitted via: CDex 1.51
#
DISCID=9c105a0c
DTITLE=Pamberi Steel Ochestra - Jazz In Steel
DYEAR=2003
DGENRE=Jazz
TTITLE0=Take Five
TTITLE1=Caravan
TTITLE2=Mr Bojangles
TTITLE3=Footprints
TTITLE4=Night In Tunisia
TTITLE5=Armandos Rhumba
TTITLE6=Call Of The Water Dancer
TTITLE7=For My People
TTITLE8=Beat 70
TTITLE9=Johannesburg
TTITLE10=Senor Blues
TTITLE11=Oye Como Va
EXTD=YEAR: 2003
EXTT0=
EXTT1=
EXTT2=
EXTT3=
EXTT4=
EXTT5=
EXTT6=
EXTT7=
EXTT8=
EXTT9=
EXTT10=
EXTT11=
PLAYORDER=
